# xmcd CD database file
#
# Track frame offsets:
#	150
#	12735
#	24145
#	39255
#	54405
#	69255
#	81488
#	94135
#	106915
#	120480
#	133563
#	146723
#	160335
#	173298
#	187000
#	200180
#
# Disc length: 2799 seconds
#
# Revision: 0
# Processed by: cddbd v1.5.2PL0 Copyright (c) Steve Scherf et al.
# Submitted via: CDex 1.94
#
DISCID=d40aed10
DTITLE=Various Artists   - Chicago Style =Hand Me Down Blues
DYEAR=1900
DGENRE=Blues
TTITLE0=Henry Gray   - Watch Yourself    
TTITLE1=Henry Gray   - That Ain't Right    
TTITLE2=Henry Gray   - Goodbye Baby    
TTITLE3=Henry Gray   - You Messed Up    
TTITLE4=Dusty Brown   - He Don't Love You    
TTITLE5=Dusty Brown   - Yes She's Gone    
TTITLE6=Dusty Brown   - Hurry Home    
TTITLE7=Dusty Brown   - Rusty Dusty (Blue Rhythm Jump)    
TTITLE8=Albert King   - Hand Me Down Blues    
TTITLE9=Albert King   - Little Boy Blue    
TTITLE10=John Brim And His Stompers   - Gary Stomp    
TTITLE11=Sunnyland Slim   - Going Back To Memphis    
TTITLE12=Sunnyland Slim   - The Devil Is A Busy Man    
TTITLE13=Snooky Pryor   - Crosstown Blues    
TTITLE14=Snooky Pryor   - I Want You For Myself    
TTITLE15=Little Willy Foster   - Four Day Jump    
EXTD=
EXTT0=
EXTT1=
EXTT2=
EXTT3=
EXTT4=
EXTT5=
EXTT6=
EXTT7=
EXTT8=
EXTT9=
EXTT10=
EXTT11=
EXTT12=
EXTT13=
EXTT14=
EXTT15=
PLAYORDER=
